<svg width="55" height="54" viewBox="0 0 55 54" fill="none" xmlns="http://www.w3.org/2000/svg">
<path d="M36.5 4.5H18.5C11.0547 4.5 5 10.5547 5 18V47.25C5 47.8467 5.23705 48.419 5.65901 48.841C6.08097 49.2629 6.65326 49.5 7.25 49.5H36.5C43.9453 49.5 50 43.4453 50 36V18C50 10.5547 43.9453 4.5 36.5 4.5ZM45.5 36C45.5 40.9635 41.4635 45 36.5 45H9.5V18C9.5 13.0365 13.5365 9 18.5 9H36.5C41.4635 9 45.5 13.0365 45.5 18V36Z" fill="#3D55AE"/>
<path d="M25.25 13.5H29.75V31.5H25.25V13.5ZM25.25 36H29.75V40.5H25.25V36Z" fill="#3D55AE"/>
</svg>
