
  <svg
    width="20"
    height="12"
    viewBox="0 0 20 12"
    fill="none"
    xmlns="http://www.w3.org/2000/svg"
  >
    <path
      d="M4.44444 0H2.22222C1.63285 0 1.06762 0.234126 0.650874 0.650874C0.234126 1.06762 0 1.63285 0 2.22222L0 11.1111H2.22222V6.66667H4.44444V11.1111H6.66667V2.22222C6.66667 1.63285 6.43254 1.06762 6.01579 0.650874C5.59905 0.234126 5.03381 0 4.44444 0M4.44444 4.44444H2.22222V2.22222H4.44444M12.2222 0H7.77778V11.1111H10V6.66667H12.2222C12.8116 6.66667 13.3768 6.43254 13.7936 6.01579C14.2103 5.59905 14.4444 5.03381 14.4444 4.44444V2.22222C14.4444 1.63285 14.2103 1.06762 13.7936 0.650874C13.3768 0.234126 12.8116 0 12.2222 0M12.2222 4.44444H10V2.22222H12.2222M18.8889 2.22222V8.88889H20V11.1111H15.5556V8.88889H16.6667V2.22222H15.5556V0H20V2.22222H18.8889Z"
      fill="white"
    />
  </svg>

