<svg width="31" height="29" viewBox="0 0 31 29" fill="none" xmlns="http://www.w3.org/2000/svg">
<path d="M3.16683 0.125H24.7502C25.5679 0.125 26.3522 0.44985 26.9304 1.02809C27.5086 1.60632 27.8335 2.39058 27.8335 3.20833V14.1233C25.5139 13.7336 23.133 14.2407 21.1735 15.5417H15.5002V21.7083H17.1652C16.9956 22.7567 16.9956 23.7896 17.1652 24.7917H3.16683C2.34908 24.7917 1.56482 24.4668 0.986583 23.8886C0.408346 23.3103 0.0834961 22.5261 0.0834961 21.7083V3.20833C0.0834961 1.5125 1.471 0.125 3.16683 0.125ZM3.16683 6.29167V12.4583H12.4168V6.29167H3.16683ZM15.5002 6.29167V12.4583H24.7502V6.29167H15.5002ZM3.16683 15.5417V21.7083H12.4168V15.5417H3.16683ZM30.8243 22.4792H27.741V28.6458H24.6577V22.4792H21.5743L26.1993 17.8542L30.8243 22.4792Z" fill="#3D55AE"/>
</svg>
