<svg width="30" height="30" viewBox="0 0 60 60" fill="none" xmlns="http://www.w3.org/2000/svg">
<path d="M31.3804 0.69249H35.429V6.1452C42.252 6.1452 49.0744 6.15883 55.8968 6.12448C57.049 6.17192 58.3167 6.09067 59.3184 6.77881C60.0202 7.78756 59.9389 9.06894 59.9864 10.2276C59.9526 22.06 59.9662 33.8859 59.9733 45.7112C59.9395 47.6949 60.157 49.7189 59.7415 51.6753C59.4689 53.093 57.7649 53.1268 56.6264 53.1748C49.5651 53.195 42.4973 53.1612 35.429 53.1748V59.3091H31.1961C20.8086 57.4209 10.4005 55.6765 0 53.8564V6.15229C10.4627 4.33217 20.9248 2.53987 31.3804 0.69249Z" fill="#207245"/>
<path d="M35.429 8.18997H57.9214V51.1301H35.429V47.0405H40.8817V42.2694H35.429V39.5431H40.8817V34.7719H35.429V32.0456H40.8817V27.2745H35.429V24.5481H40.8817V19.777H35.429V17.0506H40.8817V12.2795H35.429V8.18997Z" fill="white"/>
<path d="M43.6081 12.2795H53.1503V17.0506H43.6081V12.2795Z" fill="#207245"/>
<path d="M20.1887 18.6657C21.7291 18.5567 23.2765 18.4612 24.8235 18.3865C23.0064 22.1182 21.173 25.8419 19.3233 29.5575C21.198 33.3744 23.1124 37.164 24.9936 40.9809C23.3528 40.8868 21.7126 40.7823 20.0731 40.6674C18.9144 37.8249 17.5032 35.0784 16.6717 32.1066C15.7453 34.8739 14.4224 37.4841 13.3597 40.1974C11.8667 40.1767 10.3738 40.1156 8.88138 40.054C10.6328 36.6259 12.3231 33.1699 14.1291 29.762C12.5958 26.2515 10.912 22.8098 9.33068 19.32C10.8302 19.2312 12.3297 19.1428 13.8292 19.061C14.8445 21.7263 15.9552 24.3567 16.7944 27.0902C17.6935 24.1937 19.0365 21.4673 20.1887 18.6657Z" fill="white"/>
<path d="M43.6081 19.777H53.1503V24.5481H43.6081V19.777ZM43.6081 27.2745H53.1503V32.0456H43.6081V27.2745ZM43.6081 34.7719H53.1503V39.5431H43.6081V34.7719ZM43.6081 42.2694H53.1503V47.0405H43.6081V42.2694Z" fill="#207245"/>
</svg>
