<svg width="45" height="51" viewBox="0 0 45 51" fill="none" xmlns="http://www.w3.org/2000/svg">
<path d="M41.6065 18.4703H40.42V12.7461C40.419 12.7097 40.4155 12.6735 40.4095 12.6376C40.4111 12.4076 40.329 12.1849 40.1785 12.0111L30.655 1.13133L30.648 1.12433C30.5909 1.06272 30.5262 1.00862 30.4555 0.963328L30.3925 0.924827C30.332 0.891189 30.2681 0.864198 30.2017 0.844327L30.1493 0.826828C30.0765 0.8087 30.0019 0.7993 29.927 0.798828H6.51725C5.448 0.798828 4.58 1.66858 4.58 2.73608V18.4686H3.3935C1.864 18.4686 0.625 19.7076 0.625 21.2371V35.6361C0.625 37.1638 1.86575 38.4046 3.3935 38.4046H4.58V48.2606C4.58 49.3281 5.448 50.1978 6.51725 50.1978H38.4827C39.5503 50.1978 40.42 49.3281 40.42 48.2606V38.4046H41.6065C43.1343 38.4046 44.375 37.1656 44.375 35.6361V21.2371C44.375 19.7093 43.136 18.4703 41.6065 18.4703ZM6.51725 2.73608H28.9575V12.6481C28.9575 13.1836 29.3915 13.6158 29.927 13.6158H38.4845V18.4686H6.51725V2.73608ZM21.0108 29.2801C18.6588 28.4401 17.1065 27.1381 17.1065 25.0818C17.1065 22.6686 19.1435 20.8433 22.4598 20.8433C24.0767 20.8433 25.23 21.1583 26.07 21.5556L25.356 24.1158C24.4409 23.6701 23.4356 23.4408 22.4177 23.4456C21.0317 23.4456 20.3598 24.0948 20.3598 24.8088C20.3598 25.7118 21.135 26.1091 22.983 26.8021C25.482 27.7261 26.6353 29.0263 26.6353 31.0213C26.6353 33.3943 24.831 35.4086 20.9478 35.4086C19.3308 35.4086 17.7365 34.9676 16.9385 34.5266L17.5895 31.9033C18.6884 32.4644 19.9013 32.7661 21.135 32.7853C22.605 32.7853 23.382 32.1746 23.382 31.2523C23.382 30.3703 22.7118 29.8681 21.0108 29.2801ZM4.34025 28.3141C4.34025 23.5068 7.7825 20.8416 12.063 20.8416C13.722 20.8416 14.9803 21.1758 15.5473 21.4506L14.8753 23.9898C14.0252 23.6329 13.1109 23.4542 12.189 23.4648C9.67075 23.4648 7.6985 24.9961 7.6985 28.1443C7.6985 30.9566 9.37675 32.7416 12.21 32.7416C13.197 32.7416 14.247 32.5543 14.8963 32.2796L15.36 34.7978C14.793 35.0691 13.449 35.4068 11.7498 35.4068C6.8585 35.4086 4.34025 32.3443 4.34025 28.3141ZM38.4827 47.7391H6.51725V38.4063H38.4827V47.7391ZM35.8963 35.1986H32.16L27.6275 21.0516H31.1328L32.853 27.0348C33.3343 28.7341 33.7753 30.3301 34.1113 32.0923H34.1743C34.5321 30.4107 34.9589 28.7444 35.4535 27.0978L37.2595 21.0533H40.658L35.8963 35.1986Z" fill="#05B55B"/>
</svg>
