<svg width="20" height="20" viewBox="0 0 20 20" fill="none" xmlns="http://www.w3.org/2000/svg">
<path d="M10.0021 13.5001C8.01806 13.5001 6.40406 11.9301 6.40406 10.0001C6.40406 8.07006 8.01806 6.50006 10.0021 6.50006C11.9861 6.50006 13.6001 8.07006 13.6001 10.0001C13.6001 11.9301 11.9861 13.5001 10.0021 13.5001ZM17.6411 10.9701C17.6811 10.6501 17.7131 10.3301 17.7131 10.0001C17.7131 9.67006 17.6821 9.34006 17.6411 9.00006L19.8101 7.37006C19.9046 7.29635 19.9691 7.19086 19.9917 7.07316C20.0144 6.95546 19.9935 6.83355 19.9331 6.73006L17.8771 3.27006C17.8158 3.16481 17.719 3.08485 17.6041 3.04453C17.4892 3.00421 17.3637 3.00617 17.2501 3.05006L14.6901 4.05006C14.1561 3.66006 13.6001 3.32006 12.9531 3.07006L12.5731 0.420062C12.5505 0.300601 12.4864 0.19296 12.3922 0.11612C12.298 0.0392798 12.1796 -0.00182227 12.0581 6.20248e-05H7.94606C7.82466 -0.00158494 7.70657 0.0396254 7.61256 0.116445C7.51855 0.193264 7.45464 0.300773 7.43206 0.420062L7.05206 3.07006C6.40406 3.32006 5.84906 3.66006 5.31406 4.05006L2.75406 3.05006C2.64046 3.00617 2.51494 3.00421 2.40002 3.04453C2.28511 3.08485 2.18833 3.16481 2.12706 3.27006L0.071059 6.73006C0.00829221 6.83302 -0.0137847 6.95569 0.0091509 7.07407C0.0320865 7.19245 0.0983828 7.298 0.195059 7.37006L2.36406 9.00006C2.31998 9.33165 2.29593 9.66558 2.29206 10.0001C2.29206 10.3301 2.32206 10.6501 2.36406 10.9701L0.194059 12.6301C0.097546 12.7023 0.0314485 12.8079 0.00869961 12.9263C-0.0140493 13.0446 0.00818749 13.1672 0.071059 13.2701L2.12706 16.7301C2.25106 16.9501 2.52806 17.0301 2.75506 16.9501L5.31506 15.9401C5.84906 16.3401 6.40506 16.6801 7.05206 16.9301L7.43206 19.5801C7.47306 19.8201 7.68906 20.0001 7.94606 20.0001H12.0581C12.3151 20.0001 12.5311 19.8201 12.5721 19.5801L12.9521 16.9301C13.5728 16.6788 14.1573 16.3458 14.6901 15.9401L17.2501 16.9501C17.4761 17.0301 17.7541 16.9501 17.8771 16.7301L19.9331 13.2701C19.9935 13.1666 20.0144 13.0447 19.9917 12.927C19.9691 12.8093 19.9046 12.7038 19.8101 12.6301L17.6401 10.9701H17.6411Z" fill="white"/>
</svg>
