<svg width="25" height="31" viewBox="0 0 25 31" fill="none" xmlns="http://www.w3.org/2000/svg">
<path d="M20.9023 0.105779C20.4253 0.236294 19.8732 0.516902 15.8446 2.65735C6.75226 7.49291 1.87664 10.1163 1.49386 10.3838C0.803627 10.8667 0.314177 11.6042 0.0945539 12.4982C-0.0372198 13.0333 -0.0246699 14.0383 0.113379 14.4624C0.376926 15.2456 1.04834 16.1069 1.70094 16.4919C2.33471 16.8704 20.3438 24.871 20.7705 24.9689C21.3917 25.106 21.9313 25.0864 22.5651 24.8906C23.2303 24.6948 23.5816 24.4729 24.046 23.964C24.6171 23.3375 24.8367 22.835 24.9747 21.8105C25.0437 21.2818 24.9747 20.7728 24.7237 20.068C24.5292 19.5199 23.9456 18.9326 23.1863 18.528C22.8789 18.3583 20.0676 17.0858 16.9427 15.6958C13.8178 14.3059 11.2389 13.1443 11.2138 13.1181C11.1824 13.092 12.1424 12.5374 13.3472 11.8913C15.5435 10.7101 21.0842 7.74743 22.7721 6.84689C24.4601 5.95286 24.9119 5.24808 24.9119 3.49265C24.9119 2.5203 24.686 1.85468 24.1024 1.13032C23.5189 0.392913 22.7032 0.00136698 21.787 0.00789276C21.4858 0.00789276 21.0842 0.0535731 20.9023 0.105779Z" fill="#3D55AE"/>
<path d="M0.935422 18.8224C0.420878 19.1095 0.0694813 19.6707 0.0192817 20.2972C-0.0309177 20.8193 0.0820314 21.0934 0.496177 21.5241C0.878951 21.9287 0.502452 21.7459 5.17727 23.8407C5.97419 24.1931 6.62679 24.4933 6.63934 24.5063C6.65189 24.5129 5.78594 24.9892 4.72549 25.5504C0.609126 27.7365 0.471077 27.828 0.163606 28.4674C-0.125042 29.0678 -0.0246428 29.5312 0.533826 30.1968C1.02955 30.7841 1.63194 30.9603 2.25943 30.6993C2.72377 30.5035 10.7369 26.1769 11.0946 25.9224C11.4773 25.6614 11.8099 25.2633 11.9542 24.911C12.0672 24.6304 12.0734 23.9908 11.9667 23.7493C11.7534 23.2664 11.22 22.8487 10.2223 22.3789C9.06775 21.8372 3.35127 19.2596 2.6673 18.9724C1.85156 18.6331 1.35584 18.5874 0.935422 18.8224Z" fill="#FD9802"/>
</svg>
